# Blender v2.93.5 OBJ File: ''
# www.blender.org
mtllib city2.mtl
o parking_tile_2x2_4_Plane.6555
v 0.020497 -0.000546 0.000500
v 0.020497 -0.000546 -0.000500
v -0.039613 -0.000546 0.000500
v -0.039613 -0.000546 -0.000500
v 0.040182 0.000700 0.040000
v 0.040182 0.000700 -0.040000
v 0.040182 -0.000615 0.040000
v 0.040182 -0.000615 -0.040000
v 0.039271 0.000700 0.038974
v 0.039271 0.000700 -0.038974
v 0.039271 -0.000689 0.038974
v 0.039271 -0.000689 -0.038974
v -0.040182 0.000700 0.040000
v -0.040182 0.000700 -0.040000
v -0.040182 -0.000615 0.040000
v -0.040182 -0.000615 -0.040000
v -0.039271 0.000700 0.038974
v -0.039271 0.000700 -0.038974
v -0.039271 -0.000689 0.038974
v -0.039271 -0.000689 -0.038974
v 0.040182 -0.000615 0.010206
v 0.040182 -0.000615 0.029806
v 0.039271 0.000700 0.010206
v 0.039271 0.000700 0.029806
v 0.040182 0.000700 0.029806
v 0.040182 0.000700 0.010206
v 0.039271 -0.000689 0.029806
v 0.039271 -0.000689 0.010206
v 0.030497 -0.000546 -0.040000
v 0.029497 -0.000546 -0.040000
v 0.030497 -0.000546 -0.020000
v 0.029497 -0.000546 -0.020000
v 0.020497 -0.000546 -0.040000
v 0.019497 -0.000546 -0.040000
v 0.020497 -0.000546 -0.020000
v 0.019497 -0.000546 -0.020000
v 0.010497 -0.000546 -0.040000
v 0.009497 -0.000546 -0.040000
v 0.010497 -0.000546 -0.020000
v 0.009497 -0.000546 -0.020000
v 0.000497 -0.000546 -0.040000
v -0.000503 -0.000546 -0.040000
v 0.000497 -0.000546 -0.020000
v -0.000503 -0.000546 -0.020000
v -0.009503 -0.000546 -0.040000
v -0.010503 -0.000546 -0.040000
v -0.009503 -0.000546 -0.020000
v -0.010503 -0.000546 -0.020000
v -0.019503 -0.000546 -0.040000
v -0.020503 -0.000546 -0.040000
v -0.019503 -0.000546 -0.020000
v -0.020503 -0.000546 -0.020000
v -0.029503 -0.000546 -0.040000
v -0.030503 -0.000546 -0.040000
v -0.029503 -0.000546 -0.020000
v -0.030503 -0.000546 -0.020000
v 0.030497 -0.000546 0.020000
v 0.029497 -0.000546 0.020000
v 0.030497 -0.000546 0.040000
v 0.029497 -0.000546 0.040000
v 0.020497 -0.000546 0.020000
v 0.019497 -0.000546 0.020000
v 0.020497 -0.000546 0.040000
v 0.019497 -0.000546 0.040000
v 0.010497 -0.000546 0.020000
v 0.009497 -0.000546 0.020000
v 0.010497 -0.000546 0.040000
v 0.009497 -0.000546 0.040000
v 0.000497 -0.000546 0.020000
v -0.000503 -0.000546 0.020000
v 0.000497 -0.000546 0.040000
v -0.000503 -0.000546 0.040000
v -0.009503 -0.000546 0.020000
v -0.010503 -0.000546 0.020000
v -0.009503 -0.000546 0.040000
v -0.010503 -0.000546 0.040000
v -0.019503 -0.000546 0.020000
v -0.020503 -0.000546 0.020000
v -0.019503 -0.000546 0.040000
v -0.020503 -0.000546 0.040000
v -0.029503 -0.000546 0.020000
v -0.030503 -0.000546 0.020000
v -0.029503 -0.000546 0.040000
v -0.030503 -0.000546 0.040000
v -0.040000 -0.000562 0.040000
v 0.040000 -0.000562 0.040000
v -0.040000 -0.000562 -0.040000
v 0.040000 -0.000562 -0.040000
v 0.038625 -0.000963 0.009734
v 0.038342 0.011404 0.010047
v 0.038414 -0.000963 0.009368
v 0.037957 0.011404 0.009876
v 0.038001 -0.000963 0.009456
v 0.038001 0.011404 0.009456
v 0.038342 -0.000963 0.010047
v 0.038414 0.011404 0.009368
v 0.037957 -0.000963 0.009876
v 0.038625 0.011404 0.009734
v 0.038629 0.008247 0.008272
v 0.038629 0.011169 0.008272
v 0.038629 0.008247 0.011195
v 0.038629 0.011169 0.011195
v 0.038620 0.008247 0.008272
v 0.038620 0.011169 0.008272
v 0.038620 0.008247 0.011195
v 0.038620 0.011169 0.011195
v 0.038629 0.010136 0.008770
v 0.038629 0.009546 0.009014
v 0.038629 0.009250 0.009696
v 0.038629 0.008494 0.010217
v 0.038629 0.008494 0.009696
v 0.038629 0.010970 0.010217
v 0.038629 0.010970 0.009604
v 0.038629 0.010726 0.009014
vt 0.079377 0.914361
vt 0.079377 0.921778
vt 0.079377 0.921778
vt 0.079377 0.914361
vt 0.253800 0.930036
vt 0.296728 0.930036
vt 0.296728 0.930036
vt 0.253800 0.930036
vt 0.466522 0.915271
vt 0.423594 0.915271
vt 0.423594 0.915271
vt 0.466522 0.915271
vt 0.230435 0.943175
vt 0.230435 0.943175
vt 0.230435 0.943175
vt 0.230435 0.943175
vt 0.228063 0.930036
vt 0.228063 0.930036
vt 0.228063 0.930036
vt 0.228063 0.930036
vt 0.397857 0.915271
vt 0.397857 0.915271
vt 0.397857 0.915271
vt 0.397857 0.915271
vt 0.296728 0.930036
vt 0.296728 0.930036
vt 0.299101 0.943175
vt 0.299101 0.943175
vt 0.299101 0.943175
vt 0.299101 0.943175
vt 0.466522 0.915271
vt 0.466522 0.915271
vt 0.236875 0.930036
vt 0.236429 0.930036
vt 0.238802 0.943175
vt 0.238802 0.943175
vt 0.442573 0.907586
vt 0.442573 0.907586
vt 0.402556 0.914238
vt 0.402556 0.914238
vt 0.446608 0.907586
vt 0.406697 0.914238
vt 0.406697 0.914238
vt 0.446608 0.907586
vt 0.406669 0.915271
vt 0.406669 0.915271
vt 0.079377 0.914361
vt 0.079377 0.921778
vt 0.079377 0.921778
vt 0.079377 0.914361
vt 0.079377 0.914361
vt 0.079377 0.921778
vt 0.079377 0.921778
vt 0.079377 0.914361
vt 0.079377 0.914361
vt 0.079377 0.921778
vt 0.079377 0.921778
vt 0.079377 0.914361
vt 0.079377 0.914361
vt 0.079377 0.921778
vt 0.079377 0.921778
vt 0.079377 0.914361
vt 0.079377 0.914361
vt 0.079377 0.921778
vt 0.079377 0.921778
vt 0.079377 0.914361
vt 0.079377 0.914361
vt 0.079377 0.921778
vt 0.079377 0.921778
vt 0.079377 0.914361
vt 0.079377 0.914361
vt 0.079377 0.921778
vt 0.079377 0.921778
vt 0.079377 0.914361
vt 0.079377 0.914361
vt 0.079377 0.921778
vt 0.079377 0.921778
vt 0.079377 0.914361
vt 0.079377 0.914361
vt 0.079377 0.921778
vt 0.079377 0.921778
vt 0.079377 0.914361
vt 0.079377 0.914361
vt 0.079377 0.921778
vt 0.079377 0.921778
vt 0.079377 0.914361
vt 0.079377 0.914361
vt 0.079377 0.921778
vt 0.079377 0.921778
vt 0.079377 0.914361
vt 0.079377 0.914361
vt 0.079377 0.921778
vt 0.079377 0.921778
vt 0.079377 0.914361
vt 0.079377 0.914361
vt 0.079377 0.921778
vt 0.079377 0.921778
vt 0.079377 0.914361
vt 0.079377 0.914361
vt 0.079377 0.921778
vt 0.079377 0.921778
vt 0.079377 0.914361
vt 0.560679 0.872122
vt 0.633108 0.872122
vt 0.633108 0.944551
vt 0.560679 0.944551
vt 0.256173 0.943175
vt 0.256173 0.943175
vt 0.595128 0.894586
vt 0.595128 0.894586
vt 0.564074 0.898651
vt 0.564074 0.898651
vt 0.591929 0.930845
vt 0.591929 0.930845
vt 0.596126 0.894348
vt 0.596126 0.894348
vt 0.577907 0.931063
vt 0.577907 0.931063
vt 0.384399 0.705730
vt 0.460485 0.705730
vt 0.460485 0.781816
vt 0.384399 0.781816
vt 0.384399 0.705730
vt 0.384399 0.781816
vt 0.460485 0.781816
vt 0.460485 0.705730
vt 0.292128 0.893927
vt 0.292128 0.893927
vt 0.292128 0.893927
vt 0.267928 0.908948
vt 0.280641 0.921661
vt 0.252907 0.933148
vt 0.270552 0.893927
vt 0.237885 0.908948
vt 0.225173 0.921661
vt 0.213685 0.893927
vt 0.252907 0.915170
vt 0.271136 0.893927
vn 0.0000 1.0000 0.0000
vn 1.0000 0.0000 0.0000
vn 0.0000 0.0000 -1.0000
vn -0.0000 0.0000 1.0000
vn -1.0000 0.0000 -0.0000
vn -0.4067 0.0000 0.9135
vn 0.7431 0.0000 0.6691
vn -0.9945 0.0000 -0.1045
vn 0.8660 0.0000 -0.5000
vn -0.2079 0.0000 -0.9781
usemtl City_low_poly.007
s 1
f 1/1/1 2/2/1 4/3/1 3/4/1
f 26/5/1 6/6/1 10/7/1 23/8/1
f 6/9/2 26/10/2 21/11/2 8/12/2
f 17/13/3 9/14/3 11/15/3 19/16/3
f 13/17/1 5/18/1 9/19/1 17/20/1
f 15/21/4 7/22/4 5/23/4 13/24/4
f 18/25/1 10/7/1 6/6/1 14/26/1
f 20/27/4 12/28/4 10/29/4 18/30/4
f 13/17/1 17/20/1 18/25/1 14/26/1
f 14/31/5 16/32/5 15/21/5 13/24/5
f 17/13/2 19/16/2 20/27/2 18/30/2
f 14/31/3 6/9/3 8/12/3 16/32/3
f 5/18/1 25/33/1 24/34/1 9/19/1
f 9/14/5 24/35/5 27/36/5 11/15/5
f 25/37/3 22/38/3 27/39/3 24/40/3
f 26/41/4 23/42/4 28/43/4 21/44/4
f 25/45/2 5/23/2 7/22/2 22/46/2
f 29/47/1 30/48/1 32/49/1 31/50/1
f 33/51/1 34/52/1 36/53/1 35/54/1
f 37/55/1 38/56/1 40/57/1 39/58/1
f 41/59/1 42/60/1 44/61/1 43/62/1
f 45/63/1 46/64/1 48/65/1 47/66/1
f 49/67/1 50/68/1 52/69/1 51/70/1
f 53/71/1 54/72/1 56/73/1 55/74/1
f 57/75/1 58/76/1 60/77/1 59/78/1
f 61/79/1 62/80/1 64/81/1 63/82/1
f 65/83/1 66/84/1 68/85/1 67/86/1
f 69/87/1 70/88/1 72/89/1 71/90/1
f 73/91/1 74/92/1 76/93/1 75/94/1
f 77/95/1 78/96/1 80/97/1 79/98/1
f 81/99/1 82/100/1 84/101/1 83/102/1
f 85/103/1 86/104/1 88/105/1 87/106/1
f 23/107/5 10/29/5 12/28/5 28/108/5
f 92/109/6 97/110/6 95/111/6 90/112/6
f 90/112/7 95/111/7 89/113/7 98/114/7
f 94/115/8 93/116/8 97/110/8 92/109/8
f 98/114/9 89/113/9 91/117/9 96/118/9
f 96/118/10 91/117/10 93/116/10 94/115/10
f 92/109/1 90/112/1 98/114/1 96/118/1 94/115/1
f 99/119/2 100/120/2 102/121/2 101/122/2
f 103/123/5 105/124/5 106/125/5 104/126/5
f 109/127/2 110/128/2 111/129/2
f 112/130/2 108/131/2 107/132/2
f 112/133/2 109/127/2 108/131/2
f 112/134/2 114/135/2 113/136/2
f 112/137/2 107/132/2 114/135/2
f 112/138/2 110/128/2 109/127/2
