# Blender v2.93.5 OBJ File: ''
# www.blender.org
mtllib building02.mtl
o Box001_Material_#25_0
v -0.451310 -0.000000 0.426801
v -0.201310 -0.000000 0.426801
v -0.201310 1.000000 0.426801
v -0.451310 1.000000 0.426801
v 0.048690 -0.000000 0.760134
v 0.298690 -0.000000 0.760134
v 0.298690 1.000000 0.760134
v 0.048690 1.000000 0.760134
v -0.201310 -0.000000 0.760134
v -0.201310 1.000000 0.760134
v 0.298690 -0.000000 0.426801
v 0.548690 -0.000000 0.426801
v 0.548690 1.000000 0.426801
v 0.298690 1.000000 0.426801
v 0.548690 -0.000000 0.426801
v 0.548690 0.000000 -0.239866
v 0.548690 1.000000 -0.239866
v 0.548690 1.000000 0.426801
v -0.451310 0.000000 -0.239866
v -0.451310 -0.000000 0.426801
v -0.451310 1.000000 0.426801
v -0.451310 1.000000 -0.239866
v 0.298690 1.000000 -0.239866
v 0.548690 1.000000 -0.239866
v 0.548690 0.000000 -0.239866
v 0.048690 1.000000 -0.239866
v -0.201310 1.000000 -0.239866
v -0.451310 1.000000 -0.239866
v 0.298690 0.000000 -0.239866
v 0.048690 0.000000 -0.239866
v -0.201310 0.000000 -0.239866
v -0.451310 0.000000 -0.239866
v 0.298690 -0.000000 0.426801
v 0.298690 1.000000 0.426801
v 0.298690 1.000000 0.760134
v 0.298690 -0.000000 0.760134
v -0.201310 1.000000 0.426801
v -0.201310 -0.000000 0.426801
v -0.201310 -0.000000 0.760134
v -0.201310 1.000000 0.760134
v 0.298690 1.000000 0.426801
v 0.548690 1.000000 0.426801
v 0.548690 1.000000 -0.239866
v 0.048690 1.000000 0.426801
v -0.201310 1.000000 0.426801
v 0.298690 1.000000 -0.239866
v 0.048690 1.000000 -0.239866
v -0.201310 1.000000 -0.239866
v -0.451310 1.000000 -0.239866
v -0.451310 1.000000 0.426801
v 0.048690 1.000000 0.760134
v 0.298690 1.000000 0.760134
v 0.298690 1.000000 0.426801
v -0.201310 1.000000 0.760134
v 0.048690 1.000000 0.426801
v -0.201310 1.000000 0.426801
vt 0.159867 0.970927
vt 0.249272 0.970927
vt 0.249272 0.368470
vt 0.159867 0.368470
vt 0.372614 0.979783
vt 0.495507 0.979783
vt 0.495507 0.325431
vt 0.372614 0.325431
vt 0.249720 0.979783
vt 0.249720 0.325431
vt 0.496586 0.970533
vt 0.584374 0.970533
vt 0.584374 0.368464
vt 0.496586 0.368464
vt 0.010584 0.213794
vt 0.010962 0.009331
vt 0.609146 0.009606
vt 0.608838 0.213634
vt 0.010949 0.009292
vt 0.010579 0.213892
vt 0.608091 0.213487
vt 0.609038 0.009418
vt 0.853750 0.388089
vt 0.934143 0.388089
vt 0.934143 0.986406
vt 0.773356 0.388089
vt 0.692963 0.388089
vt 0.611305 0.388089
vt 0.856222 0.986406
vt 0.777372 0.986406
vt 0.698521 0.986406
vt 0.611305 0.986406
vt 0.045392 0.969005
vt 0.045392 0.369936
vt 0.150068 0.369936
vt 0.150068 0.969005
vt 0.045702 0.369722
vt 0.045702 0.968741
vt 0.149992 0.968741
vt 0.149992 0.369722
vt 0.885027 0.343707
vt 0.968097 0.343707
vt 0.968097 0.027057
vt 0.801958 0.343707
vt 0.718888 0.343707
vt 0.885027 0.027057
vt 0.801958 0.027057
vt 0.718888 0.027057
vt 0.635818 0.027057
vt 0.635818 0.343707
vt 0.803120 0.342887
vt 0.970491 0.342887
vt 0.970491 0.028406
vt 0.635749 0.342887
vt 0.803120 0.028406
vt 0.635749 0.028406
vn 0.0000 0.0000 1.0000
vn 1.0000 -0.0000 0.0000
vn -1.0000 -0.0000 0.0000
vn 0.0000 -0.0000 -1.0000
vn 0.0000 1.0000 0.0000
usemtl Material_25
s 1
f 1/1/1 2/2/1 3/3/1
f 3/3/1 4/4/1 1/1/1
f 5/5/1 6/6/1 7/7/1
f 5/5/1 7/7/1 8/8/1
f 9/9/1 5/5/1 8/8/1
f 9/9/1 8/8/1 10/10/1
f 11/11/1 12/12/1 13/13/1
f 13/13/1 14/14/1 11/11/1
f 15/15/2 16/16/2 17/17/2
f 17/17/2 18/18/2 15/15/2
f 19/19/3 20/20/3 21/21/3
f 21/21/3 22/22/3 19/19/3
f 23/23/4 24/24/4 25/25/4
f 26/26/4 23/23/4 25/25/4
f 27/27/4 26/26/4 25/25/4
f 28/28/4 27/27/4 25/25/4
f 28/28/4 25/25/4 29/29/4
f 28/28/4 29/29/4 30/30/4
f 28/28/4 30/30/4 31/31/4
f 32/32/4 28/28/4 31/31/4
f 33/33/2 34/34/2 35/35/2
f 35/35/2 36/36/2 33/33/2
f 37/37/3 38/38/3 39/39/3
f 39/39/3 40/40/3 37/37/3
f 41/41/5 42/42/5 43/43/5
f 44/44/5 41/41/5 43/43/5
f 45/45/5 44/44/5 43/43/5
f 45/45/5 43/43/5 46/46/5
f 45/45/5 46/46/5 47/47/5
f 45/45/5 47/47/5 48/48/5
f 45/45/5 48/48/5 49/49/5
f 45/45/5 49/49/5 50/50/5
f 51/51/5 52/52/5 53/53/5
f 54/54/5 51/51/5 53/53/5
f 54/54/5 53/53/5 55/55/5
f 56/56/5 54/54/5 55/55/5
